<mxfile host="app.diagrams.net" modified="2020-12-10T08:29:26.844Z" agent="5.0 (Macintosh)" etag="-f0sBggcpnGeyEd6A9kc" version="13.11.0" type="github">
  <diagram id="1Tpu2oxvemTthpUWuYd5" name="Page-1">
    <mxGraphModel dx="1186" dy="651" grid="1" gridSize="10" guides="1" tooltips="1" connect="1" arrows="1" fold="1" page="1" pageScale="1" pageWidth="827" pageHeight="1169" math="0" shadow="0">
      <root>
        <mxCell id="0" />
        <mxCell id="1" parent="0" />
        <mxCell id="zcKzfeUPmAMBA1N0ssA8-3" value="Product" style="shape=table;startSize=30;container=1;collapsible=1;childLayout=tableLayout;fixedRows=1;rowLines=0;fontStyle=1;align=center;resizeLast=1;" vertex="1" parent="1">
          <mxGeometry x="320" y="250" width="180" height="560" as="geometry" />
        </mxCell>
        <mxCell id="zcKzfeUPmAMBA1N0ssA8-4" value="" style="shape=partialRectangle;collapsible=0;dropTarget=0;pointerEvents=0;fillColor=none;top=0;left=0;bottom=1;right=0;points=[[0,0.5],[1,0.5]];portConstraint=eastwest;" vertex="1" parent="zcKzfeUPmAMBA1N0ssA8-3">
          <mxGeometry y="30" width="180" height="30" as="geometry" />
        </mxCell>
        <mxCell id="zcKzfeUPmAMBA1N0ssA8-5" value="PK" style="shape=partialRectangle;connectable=0;fillColor=none;top=0;left=0;bottom=0;right=0;fontStyle=1;overflow=hidden;" vertex="1" parent="zcKzfeUPmAMBA1N0ssA8-4">
          <mxGeometry width="30" height="30" as="geometry" />
        </mxCell>
        <mxCell id="zcKzfeUPmAMBA1N0ssA8-6" value="UniqueID" style="shape=partialRectangle;connectable=0;fillColor=none;top=0;left=0;bottom=0;right=0;align=left;spacingLeft=6;fontStyle=5;overflow=hidden;" vertex="1" parent="zcKzfeUPmAMBA1N0ssA8-4">
          <mxGeometry x="30" width="150" height="30" as="geometry" />
        </mxCell>
        <mxCell id="zcKzfeUPmAMBA1N0ssA8-7" value="" style="shape=partialRectangle;collapsible=0;dropTarget=0;pointerEvents=0;fillColor=none;top=0;left=0;bottom=0;right=0;points=[[0,0.5],[1,0.5]];portConstraint=eastwest;" vertex="1" parent="zcKzfeUPmAMBA1N0ssA8-3">
          <mxGeometry y="60" width="180" height="30" as="geometry" />
        </mxCell>
        <mxCell id="zcKzfeUPmAMBA1N0ssA8-8" value="" style="shape=partialRectangle;connectable=0;fillColor=none;top=0;left=0;bottom=0;right=0;editable=1;overflow=hidden;" vertex="1" parent="zcKzfeUPmAMBA1N0ssA8-7">
          <mxGeometry width="30" height="30" as="geometry" />
        </mxCell>
        <mxCell id="zcKzfeUPmAMBA1N0ssA8-9" value="Row 1" style="shape=partialRectangle;connectable=0;fillColor=none;top=0;left=0;bottom=0;right=0;align=left;spacingLeft=6;overflow=hidden;" vertex="1" parent="zcKzfeUPmAMBA1N0ssA8-7">
          <mxGeometry x="30" width="150" height="30" as="geometry" />
        </mxCell>
        <mxCell id="zcKzfeUPmAMBA1N0ssA8-10" value="" style="shape=partialRectangle;collapsible=0;dropTarget=0;pointerEvents=0;fillColor=none;top=0;left=0;bottom=0;right=0;points=[[0,0.5],[1,0.5]];portConstraint=eastwest;" vertex="1" parent="zcKzfeUPmAMBA1N0ssA8-3">
          <mxGeometry y="90" width="180" height="30" as="geometry" />
        </mxCell>
        <mxCell id="zcKzfeUPmAMBA1N0ssA8-11" value="" style="shape=partialRectangle;connectable=0;fillColor=none;top=0;left=0;bottom=0;right=0;editable=1;overflow=hidden;" vertex="1" parent="zcKzfeUPmAMBA1N0ssA8-10">
          <mxGeometry width="30" height="30" as="geometry" />
        </mxCell>
        <mxCell id="zcKzfeUPmAMBA1N0ssA8-12" value="Row 2" style="shape=partialRectangle;connectable=0;fillColor=none;top=0;left=0;bottom=0;right=0;align=left;spacingLeft=6;overflow=hidden;" vertex="1" parent="zcKzfeUPmAMBA1N0ssA8-10">
          <mxGeometry x="30" width="150" height="30" as="geometry" />
        </mxCell>
        <mxCell id="zcKzfeUPmAMBA1N0ssA8-13" value="" style="shape=partialRectangle;collapsible=0;dropTarget=0;pointerEvents=0;fillColor=none;top=0;left=0;bottom=0;right=0;points=[[0,0.5],[1,0.5]];portConstraint=eastwest;" vertex="1" parent="zcKzfeUPmAMBA1N0ssA8-3">
          <mxGeometry y="120" width="180" height="30" as="geometry" />
        </mxCell>
        <mxCell id="zcKzfeUPmAMBA1N0ssA8-14" value="" style="shape=partialRectangle;connectable=0;fillColor=none;top=0;left=0;bottom=0;right=0;editable=1;overflow=hidden;" vertex="1" parent="zcKzfeUPmAMBA1N0ssA8-13">
          <mxGeometry width="30" height="30" as="geometry" />
        </mxCell>
        <mxCell id="zcKzfeUPmAMBA1N0ssA8-15" value="Row 3" style="shape=partialRectangle;connectable=0;fillColor=none;top=0;left=0;bottom=0;right=0;align=left;spacingLeft=6;overflow=hidden;" vertex="1" parent="zcKzfeUPmAMBA1N0ssA8-13">
          <mxGeometry x="30" width="150" height="30" as="geometry" />
        </mxCell>
        <mxCell id="zcKzfeUPmAMBA1N0ssA8-16" value="" style="shape=partialRectangle;collapsible=0;dropTarget=0;pointerEvents=0;fillColor=none;top=0;left=0;bottom=0;right=0;points=[[0,0.5],[1,0.5]];portConstraint=eastwest;" vertex="1" parent="zcKzfeUPmAMBA1N0ssA8-3">
          <mxGeometry y="150" width="180" height="30" as="geometry" />
        </mxCell>
        <mxCell id="zcKzfeUPmAMBA1N0ssA8-17" value="" style="shape=partialRectangle;connectable=0;fillColor=none;top=0;left=0;bottom=0;right=0;editable=1;overflow=hidden;" vertex="1" parent="zcKzfeUPmAMBA1N0ssA8-16">
          <mxGeometry width="30" height="30" as="geometry" />
        </mxCell>
        <mxCell id="zcKzfeUPmAMBA1N0ssA8-18" value="Row 3" style="shape=partialRectangle;connectable=0;fillColor=none;top=0;left=0;bottom=0;right=0;align=left;spacingLeft=6;overflow=hidden;" vertex="1" parent="zcKzfeUPmAMBA1N0ssA8-16">
          <mxGeometry x="30" width="150" height="30" as="geometry" />
        </mxCell>
        <mxCell id="zcKzfeUPmAMBA1N0ssA8-19" value="" style="shape=partialRectangle;collapsible=0;dropTarget=0;pointerEvents=0;fillColor=none;top=0;left=0;bottom=0;right=0;points=[[0,0.5],[1,0.5]];portConstraint=eastwest;" vertex="1" parent="zcKzfeUPmAMBA1N0ssA8-3">
          <mxGeometry y="180" width="180" height="30" as="geometry" />
        </mxCell>
        <mxCell id="zcKzfeUPmAMBA1N0ssA8-20" value="" style="shape=partialRectangle;connectable=0;fillColor=none;top=0;left=0;bottom=0;right=0;editable=1;overflow=hidden;" vertex="1" parent="zcKzfeUPmAMBA1N0ssA8-19">
          <mxGeometry width="30" height="30" as="geometry" />
        </mxCell>
        <mxCell id="zcKzfeUPmAMBA1N0ssA8-21" value="Row 3" style="shape=partialRectangle;connectable=0;fillColor=none;top=0;left=0;bottom=0;right=0;align=left;spacingLeft=6;overflow=hidden;" vertex="1" parent="zcKzfeUPmAMBA1N0ssA8-19">
          <mxGeometry x="30" width="150" height="30" as="geometry" />
        </mxCell>
        <mxCell id="zcKzfeUPmAMBA1N0ssA8-22" value="" style="shape=partialRectangle;collapsible=0;dropTarget=0;pointerEvents=0;fillColor=none;top=0;left=0;bottom=0;right=0;points=[[0,0.5],[1,0.5]];portConstraint=eastwest;" vertex="1" parent="zcKzfeUPmAMBA1N0ssA8-3">
          <mxGeometry y="210" width="180" height="30" as="geometry" />
        </mxCell>
        <mxCell id="zcKzfeUPmAMBA1N0ssA8-23" value="" style="shape=partialRectangle;connectable=0;fillColor=none;top=0;left=0;bottom=0;right=0;editable=1;overflow=hidden;" vertex="1" parent="zcKzfeUPmAMBA1N0ssA8-22">
          <mxGeometry width="30" height="30" as="geometry" />
        </mxCell>
        <mxCell id="zcKzfeUPmAMBA1N0ssA8-24" value="Row 3" style="shape=partialRectangle;connectable=0;fillColor=none;top=0;left=0;bottom=0;right=0;align=left;spacingLeft=6;overflow=hidden;" vertex="1" parent="zcKzfeUPmAMBA1N0ssA8-22">
          <mxGeometry x="30" width="150" height="30" as="geometry" />
        </mxCell>
        <mxCell id="zcKzfeUPmAMBA1N0ssA8-25" value="" style="shape=partialRectangle;collapsible=0;dropTarget=0;pointerEvents=0;fillColor=none;top=0;left=0;bottom=0;right=0;points=[[0,0.5],[1,0.5]];portConstraint=eastwest;" vertex="1" parent="zcKzfeUPmAMBA1N0ssA8-3">
          <mxGeometry y="240" width="180" height="30" as="geometry" />
        </mxCell>
        <mxCell id="zcKzfeUPmAMBA1N0ssA8-26" value="" style="shape=partialRectangle;connectable=0;fillColor=none;top=0;left=0;bottom=0;right=0;editable=1;overflow=hidden;" vertex="1" parent="zcKzfeUPmAMBA1N0ssA8-25">
          <mxGeometry width="30" height="30" as="geometry" />
        </mxCell>
        <mxCell id="zcKzfeUPmAMBA1N0ssA8-27" value="Row 3" style="shape=partialRectangle;connectable=0;fillColor=none;top=0;left=0;bottom=0;right=0;align=left;spacingLeft=6;overflow=hidden;" vertex="1" parent="zcKzfeUPmAMBA1N0ssA8-25">
          <mxGeometry x="30" width="150" height="30" as="geometry" />
        </mxCell>
        <mxCell id="zcKzfeUPmAMBA1N0ssA8-28" value="" style="shape=partialRectangle;collapsible=0;dropTarget=0;pointerEvents=0;fillColor=none;top=0;left=0;bottom=0;right=0;points=[[0,0.5],[1,0.5]];portConstraint=eastwest;" vertex="1" parent="zcKzfeUPmAMBA1N0ssA8-3">
          <mxGeometry y="270" width="180" height="30" as="geometry" />
        </mxCell>
        <mxCell id="zcKzfeUPmAMBA1N0ssA8-29" value="" style="shape=partialRectangle;connectable=0;fillColor=none;top=0;left=0;bottom=0;right=0;editable=1;overflow=hidden;" vertex="1" parent="zcKzfeUPmAMBA1N0ssA8-28">
          <mxGeometry width="30" height="30" as="geometry" />
        </mxCell>
        <mxCell id="zcKzfeUPmAMBA1N0ssA8-30" value="Row 3" style="shape=partialRectangle;connectable=0;fillColor=none;top=0;left=0;bottom=0;right=0;align=left;spacingLeft=6;overflow=hidden;" vertex="1" parent="zcKzfeUPmAMBA1N0ssA8-28">
          <mxGeometry x="30" width="150" height="30" as="geometry" />
        </mxCell>
        <mxCell id="zcKzfeUPmAMBA1N0ssA8-31" value="" style="shape=partialRectangle;collapsible=0;dropTarget=0;pointerEvents=0;fillColor=none;top=0;left=0;bottom=0;right=0;points=[[0,0.5],[1,0.5]];portConstraint=eastwest;" vertex="1" parent="zcKzfeUPmAMBA1N0ssA8-3">
          <mxGeometry y="300" width="180" height="30" as="geometry" />
        </mxCell>
        <mxCell id="zcKzfeUPmAMBA1N0ssA8-32" value="" style="shape=partialRectangle;connectable=0;fillColor=none;top=0;left=0;bottom=0;right=0;editable=1;overflow=hidden;" vertex="1" parent="zcKzfeUPmAMBA1N0ssA8-31">
          <mxGeometry width="30" height="30" as="geometry" />
        </mxCell>
        <mxCell id="zcKzfeUPmAMBA1N0ssA8-33" value="Row 3" style="shape=partialRectangle;connectable=0;fillColor=none;top=0;left=0;bottom=0;right=0;align=left;spacingLeft=6;overflow=hidden;" vertex="1" parent="zcKzfeUPmAMBA1N0ssA8-31">
          <mxGeometry x="30" width="150" height="30" as="geometry" />
        </mxCell>
      </root>
    </mxGraphModel>
  </diagram>
</mxfile>
